<svg xmlns="http://www.w3.org/2000/svg" xmlns:xlink="http://www.w3.org/1999/xlink" width="73.467" height="81.435" viewBox="0 0 73.467 81.435">
  <defs>
    <clipPath id="clip-path">
      <rect id="Rectangle_16" data-name="Rectangle 16" width="73.467" height="81.435" fill="#fff"/>
    </clipPath>
  </defs>
  <g id="Logo" clip-path="url(#clip-path)">
    <path id="Path_1" data-name="Path 1" d="M41.544,64.156s-.058-.282-1.222-6.666c-1.77-9.71-4.842-6.93-4.842-6.93s-.01-1.979,5.41-3.647c0,0,.9-.57,2.817,8.976,0,0,1.7-10.865,5.764-11.621A23.688,23.688,0,0,0,45.881,60.91s.329,1.149.942,1.1c.666-.055-4.816,4.294-5.279,2.148" transform="translate(-18.384 -22.938)" fill="#fff"/>
    <path id="Path_2" data-name="Path 2" d="M64.643,48.526A9.218,9.218,0,0,1,65.8,44.232c1.22-2.2,3.3-1.835,3.3-.323a2.688,2.688,0,0,1-1.625,2.523c-.728.223-1.472-.176-2.829,2.094M60.966,51.6c-.352,8.447,4.781,6.075,4.781,6.075,4.342-2.251,4.6-7.3,4.6-7.3s-1.452,3.468-3.712,3.949-1.765-2.4-1.765-2.4a6.777,6.777,0,0,0,4-2.894c1.91-2.59,4.591-8.821.911-9.857-2.741-.772-8.461,3.973-8.813,12.42" transform="translate(-31.581 -20.26)" fill="#fff"/>
    <path id="Path_3" data-name="Path 3" d="M87.349,32.418l-.038,3.562.063,5.6s.347,1.343,1.3,1.334c1.344-.013-2.274,2.947-3.8,2.913s-1.37-2.594-1.37-2.594.141-5.655.178-9.444-3.017-3.829-3.017-3.829,2.069-4.591,6.612-.713c0,0,3.814-5.957,7.049-3.712,0,0,1.619,1.76-.4,4.7-.817,1.188-.7.385-.7.385,1-3.249-1.6-2.467-1.6-2.467a5.418,5.418,0,0,0-4.275,4.263" transform="translate(-41.797 -12.972)" fill="#fff"/>
    <path id="Path_4" data-name="Path 4" d="M79.857,40.441c-3.057,1.881-4.9.278-4.11-1.8s5.8-3.914,7.245-4.42a29.6,29.6,0,0,0,3.159-1.162S83.5,38.2,79.857,40.441M87.441,19.82l.014,2.771c-2.308,1.935-2.353-2.306-2.353-2.306l-.053-10.31c.175-4.133-6.587,1.183-6.587,1.183,2.938-.552,2.671,4.053,2.671,4.053l.037,7.129s-.451,9.672,6.753,3.075c0,0,.149,3.767-2.167,5.328s-10.209,2.505-12.031,6.981c-2,4.907,2.479,8.511,8.545,3.941a16.9,16.9,0,0,0,6.937-8.511,23.657,23.657,0,0,0,1.666-6.794s9.019-3.33,9.318-12.261C100.575,2.641,89.489.472,89.489.472c-24-4.06-37.9,19.421-37.9,19.421S78.585-8.971,94.053,8.365c0,0,7.358,8.67-3.2,15.962L90.88,6.843c-3.753.965-3.439,12.977-3.439,12.977" transform="translate(-26.733 0)" fill="#fff"/>
    <path id="Path_5" data-name="Path 5" d="M8.3,58.412l.055-.094s4.647-8.958,10.7-8.65c0,0,3.392-.131-.358,7.352,0,0-4.878,9.508-11.582,8.071q-.152.317-.3.642S-2.218,80.959,8.69,91.08s36.418-6.55,36.418-6.55-30.686,23.334-41.9,7.4C-4.88,80.438,4.875,64.216,4.875,64.216-4.149,58.272,6.369,46.68,6.369,46.68.813,44.051,8.335,33.439,14.779,32.953a7.16,7.16,0,0,1,3.029.309A16.147,16.147,0,0,1,20.763,31s-1.182,1.109-2.4,2.524c2.315,1.342,1.409,4.586-.158,6.2-1.2,1.238-5.6,1.669-3.293-2.7a13.575,13.575,0,0,1,1.253-1.94,3.572,3.572,0,0,0-3.184.254c-2.43,1.185-5.345,6.044-4.295,8.811a8.18,8.18,0,0,1,4.895-2.142s3.777-.288,1.939,3.327a6.3,6.3,0,0,1-6.269,2.222c-.375.705-.766,1.534-1.17,2.509,0,0-2.166,6.371.213,8.348m8.514-22.869c-.98,1.474-1.513,2.9-.571,3.554,0,0,1.1.176,1.279-1.634a2.436,2.436,0,0,0-.708-1.92M10.5,58.972a9.333,9.333,0,0,0,2.824-.793s4.855-1.552,5.175-5.342c0,0,.1-2.036-2.264-.441A23.537,23.537,0,0,0,10.5,58.972m-.148-13.215c.394.014,4.3.112,3.8-1.6,0,0-1.486-1.6-3.8,1.6h0Z" transform="translate(0 -16.063)" fill="#fff"/>
    <path id="Path_6" data-name="Path 6" d="M88.426,80a6.933,6.933,0,0,1,.113,4.693c-.848,2.6-4.014,2.884-4.636,1.357A2.469,2.469,0,0,1,85.2,83c.961-.452,2.2-.283,3.223-3" transform="translate(-43.386 -41.452)" fill="#fff"/>
    <path id="Path_7" data-name="Path 7" d="M93.629,111.392c1.344.015-2.34,2.979-3.866,2.911s-1.338-2.611-1.338-2.611.212-5.652.3-9.441c0,0,.356-4.108-1.543-4.648,0,0,5.931-4.672,5.734-.541L92.7,110.036s-.021,1.344.932,1.356" transform="translate(-45.172 -49.409)" fill="#fff"/>
    <path id="Path_8" data-name="Path 8" d="M108.106,87.947l-.114,15.139s-.021,1.345.932,1.356c1.344.016-2.34,2.98-3.867,2.911s-1.338-2.611-1.338-2.611.083-8.338.165-15.526c0,0,1.574.267,4.221-1.269" transform="translate(-53.739 -45.57)" fill="#fff"/>
    <path id="Path_9" data-name="Path 9" d="M70.178,105.132c-.953-.012-.932-1.356-.932-1.356l.216-10.6s.641-6.8-6.709-.977l.141-6.436c6.316-4,5.571-7.643,5.571-7.643-1.075-4.58-6.842.283-6.842.283-3.463,3.546-3.83,6.1-3.856,7.922l-3.175,2.955c1.158-.388,2.069-1.033,3.045-1.432.013.181.027.279.027.279L57.095,104.3c-.255,6.484-.069,6.937-.069,6.937-.289,3.094,6.414-1.328,5.794-1.406s-.5-1.775-.5-1.775l.429-14.047c3.279-2.432,2.518,4.357,2.518,4.357-.085,3.788-.3,7.066-.3,7.066s-.189,2.543,1.338,2.611,5.211-2.9,3.867-2.911M66.032,78.121s3.374.638-3.083,5.984l.03-1.234s-.264-4.415,3.053-4.75" transform="translate(-28.287 -39.461)" fill="#fff"/>
    <path id="Path_10" data-name="Path 10" d="M130.5,83.063a3.693,3.693,0,0,1-4.832-.518,8.518,8.518,0,0,1-4.229,3.107c-1.294.345-5.695-.777-3.969-9.751s8.012-9.406,8.012-9.406L125.4,56.313s-.126-2.547,1.4-2.577,5.138,3.023,3.794,3.006c-.953-.013-.965,1.333-.965,1.333l.082,21.623s.012,2.33,1.824-.086-.663-6.776.259-5.522c2.618,3.56,1.467,7.162-1.295,8.974m-5.083-4.611V69.21s-3.938.545-3.938,8.025c0,0-.064,7.166,3.938,1.217" transform="translate(-60.664 -27.843)" fill="#fff"/>
    <path id="Path_11" data-name="Path 11" d="M32.951,90.354a2.629,2.629,0,0,1,.543,3.594c-1.3,2.207-2.606,1.274-2.606,1.274-1.415-.833-.548-2.69.548-4.178a3.622,3.622,0,0,0-1.291.26,9.234,9.234,0,0,0-1.771.823s-8.868,4.4-7.139,18.269c0,0,.794,6.726,4,6.935,3.664.239,4.869-3.62,6.366-6.556,7.235,1.355,1.572,11.064-3.519,12-8.524,1.56-12.935-6.484-11.723-15.668l.319-2.117A19.8,19.8,0,0,1,28.426,90.552a17.309,17.309,0,0,1,2.278-.63,3.387,3.387,0,0,1,1.542.093,10.45,10.45,0,0,1,1.25-1.241s.633-.368-.546,1.58m-.6.956q-.138.211-.295.445c-.763,1.139-.51,2.039.2,1.689a1.544,1.544,0,0,0,.095-2.134" transform="translate(-8.372 -45.985)" fill="#fff" fill-rule="evenodd"/>
    <path id="Path_12" data-name="Path 12" d="M102.583,70.614c.04-3.261.076-5.991.1-7.129,0,0,.357-4.109-1.543-4.649,0,0,5.931-4.672,5.734-.541l-.08,10.632a8.529,8.529,0,0,1-2.664,1.557c-1.331.389-1.55.129-1.55.129" transform="translate(-52.407 -29.322)" fill="#fff"/>
  </g>
</svg>
