<?xml version="1.0" encoding="UTF-8"?>
<svg xmlns="http://www.w3.org/2000/svg" width="66" height="76" viewBox="0 0 66 76" fill="none">
  <path d="M45.1498 62.1903L45.118 74.3649L41.4645 74.3543L41.4963 62.1797L37.9277 62.1691L37.9383 58.7278L48.7237 58.7596L48.7131 62.2009L45.1498 62.1903Z" fill="white"></path>
  <path d="M59.6483 58.6019L59.6218 68.3162L54.2928 58.586L50.2416 58.5701L50.1992 74.1861L53.8527 74.202L53.8792 64.4877L59.2082 74.2179L63.2593 74.2285L63.3018 58.6179L59.6483 58.6019Z" fill="white"></path>
  <path d="M20.478 36.5809C20.478 36.5809 20.425 36.337 19.4069 30.8117C17.8533 22.4126 15.1543 24.8146 15.1543 24.8146C15.1543 24.8146 15.1437 23.1019 19.9054 21.6596C19.9054 21.6596 20.6954 21.1665 22.3816 29.4278C22.3816 29.4278 23.8716 20.0264 27.4455 19.3742C27.4455 19.3742 22.949 25.3608 24.2905 33.7759C24.2905 33.7759 24.5769 34.7674 25.1177 34.725C25.701 34.6773 20.8863 38.4421 20.4833 36.5809" fill="white"></path>
  <path d="M25.9447 28.0316C25.6372 35.3384 30.1443 33.2864 30.1443 33.2864C33.9569 31.3403 34.1849 26.9764 34.1849 26.9764C34.1849 26.9764 32.907 29.9776 30.9238 30.3912C28.9407 30.8101 29.3755 28.3179 29.3755 28.3179C29.3755 28.3179 31.2101 28.0581 32.8857 25.8151C34.5613 23.5721 36.921 18.1848 33.6864 17.2887C31.2791 16.6205 26.2523 20.7247 25.9447 28.0369M29.174 25.375C29.174 25.375 29.121 23.5615 30.1921 21.6579C31.2632 19.7543 33.0925 20.0725 33.0872 21.3769C33.0872 22.6866 32.1222 23.4184 31.6609 23.5615C31.0193 23.7524 30.367 23.4078 29.174 25.375Z" fill="white"></path>
  <path d="M40.1442 17.7402L40.1124 20.821L40.1654 25.6675C40.1654 25.6675 40.4729 26.8287 41.3054 26.8234C42.4879 26.8128 39.3064 29.3739 37.9648 29.3421C36.6233 29.2997 36.7612 27.0992 36.7612 27.0992C36.7612 27.0992 36.8831 22.2049 36.9149 18.928C36.9467 15.651 34.2637 15.6139 34.2637 15.6139C34.2637 15.6139 36.0824 11.6423 40.0699 14.9988C40.0699 14.9988 43.4211 9.84476 46.2633 11.7855C46.2633 11.7855 47.6844 13.3073 45.9133 15.8472C45.1975 16.8759 45.2982 16.1813 45.2982 16.1813C46.1784 13.3709 43.8931 14.0444 43.8931 14.0444C40.6108 14.7072 40.1389 17.7349 40.1389 17.7349" fill="white"></path>
  <path d="M9.22578 26.6052C9.57045 26.6158 13.0012 26.7007 12.5664 25.216C12.5664 25.216 11.262 23.8267 9.22578 26.6052C9.20457 26.6052 9.19927 26.6052 9.19927 26.6052H9.22578ZM9.35304 38.0428C10.0265 37.9897 10.8431 37.7723 11.8346 37.3587C11.8346 37.3587 16.0979 36.0172 16.3789 32.7349C16.3789 32.7349 16.469 30.9745 14.3904 32.3532C13.1656 33.1697 11.3574 34.9885 9.35304 38.0428ZM14.8942 17.7712C14.0352 19.0491 13.5632 20.2793 14.3904 20.8467C14.3904 20.8467 15.3555 21.0005 15.5146 19.4309C15.5729 18.8582 15.3555 18.2272 14.8942 17.7712ZM7.41762 37.5549L7.46535 37.4754C7.46535 37.4754 11.5483 29.7231 16.8614 29.9935C16.8614 29.9935 19.8414 29.8822 16.5486 36.3566C16.5486 36.3566 12.2641 44.5808 6.37833 43.34C6.28818 43.5203 6.19804 43.7059 6.1132 43.8968C6.1132 43.8968 -1.09823 60.3399 8.45161 69.1262C17.6462 77.5837 35.2983 64.7993 35.2983 64.7993C35.2983 64.7993 31.1729 70.0965 25.3614 72.594C18.59 75.5051 9.6818 77.2602 3.21272 69.5663C-4.66153 60.202 4.41639 42.5817 4.41639 42.5817C-3.51088 37.4383 5.72612 27.4112 5.72612 27.4112C0.847796 25.1364 7.45474 15.9525 13.1125 15.5336C14.242 15.4487 15.1169 15.5601 15.7744 15.804C17.1425 14.5155 18.3673 13.8474 18.3673 13.8474C18.3673 13.8474 17.328 14.8071 16.2622 16.032C18.2984 17.1932 17.4977 19.9983 16.1244 21.3928C15.0692 22.464 11.2089 22.8351 13.2292 19.0597C13.5579 18.4499 13.9344 17.8879 14.3321 17.3788C13.6587 17.0554 12.7201 17.0289 11.5377 17.6015C9.40077 18.6249 6.84495 22.8298 7.76759 25.2266C8.87051 24.3039 10.3605 23.429 12.0679 23.3707C12.0679 23.3707 15.3873 23.1215 13.77 26.25C13.77 26.25 12.0785 28.7527 8.26603 28.1748C7.93727 28.7846 7.59261 29.5004 7.23734 30.3435C7.23734 30.3435 5.33373 35.8528 7.42292 37.5655" fill="white"></path>
  <path d="M39.7527 34.2695C39.7527 34.2695 40.6118 36.0776 39.8535 38.3312C39.0952 40.5795 36.2584 40.8287 35.7016 39.5031C35.1448 38.1827 36.2425 37.1434 36.8682 36.8624C37.7272 36.47 38.8407 36.6185 39.7527 34.2695Z" fill="white"></path>
  <path d="M44.3184 38.7814C44.2548 44.8793 44.2547 52.165 44.2547 52.165C44.2547 52.165 44.0851 54.3655 45.4531 54.4239C46.8212 54.4822 50.1193 51.9158 48.9157 51.9052C48.062 51.8946 48.0832 50.7333 48.0832 50.7333L48.1044 37.5194C46.6939 38.4049 45.4001 38.7867 44.3184 38.7867V38.7814Z" fill="white"></path>
  <path d="M56.3927 0.750886C35.3152 -2.75938 21.9688 18.1273 21.9688 18.1273C21.9688 18.1273 41.9274 -0.770938 55.5602 3.9271C57.2464 4.51038 59.1182 5.62391 60.4439 7.27299C61.7218 8.85844 64.1238 16.0964 56.4564 21.9663L56.4776 6.83818C53.1794 7.67598 53.4551 18.0689 53.4551 18.0689L53.4657 20.4657C51.4402 22.1413 51.3978 18.4719 51.3978 18.4719L51.35 9.55307C51.5038 5.97917 45.565 10.5765 45.565 10.5765C48.1473 10.0992 47.9087 14.0814 47.9087 14.0814L47.9405 20.2483C47.9405 20.2483 47.5428 28.6156 53.874 22.9101C53.874 22.9101 54.0066 26.1712 51.9704 27.518C49.9343 28.8702 43.0039 29.6868 41.4025 33.5576C40.2147 36.4263 41.6305 38.7753 44.3136 38.7806C45.3953 38.7806 46.6891 38.3988 48.0996 37.5133C48.3647 37.3489 48.6351 37.1686 48.9056 36.9618C48.9056 36.9618 53.3385 34.4802 54.9982 29.5966C56.064 26.4575 56.0852 26.5901 56.4617 23.7214C56.4617 23.7214 64.601 20.0256 65.2161 12.3157C66.0274 2.29922 56.3927 0.750886 56.3927 0.750886ZM46.7952 35.9066C44.1121 37.5345 42.4948 36.1452 43.1841 34.3477C43.8735 32.5501 48.2799 30.9594 49.5472 30.5246C49.5472 30.5246 51.8007 29.8246 52.3204 29.5171C52.3204 29.5171 49.9926 33.9659 46.7899 35.9066H46.7952Z" fill="white"></path>
  <path d="M57.4105 44.7037V36.7074C57.4105 36.7074 53.8843 37.1794 53.8843 43.6485C53.8843 43.6485 53.826 49.8471 57.4105 44.7037ZM61.96 48.6912C59.4891 50.2607 57.6332 48.2404 57.6332 48.2404C57.0923 49.285 55.4698 50.7485 53.8472 50.9288C52.3254 51.0985 48.7461 50.2554 50.2945 42.4925C51.8428 34.7296 57.4688 34.3531 57.4688 34.3531L57.3946 25.5456C57.3946 25.5456 57.2832 23.3398 58.6513 23.3133C60.0193 23.2868 63.2539 25.9274 62.0502 25.9115C61.1965 25.9009 61.1859 27.0675 61.1859 27.0675L61.2601 45.7748C61.2601 45.7748 61.2707 47.7897 62.8933 45.7005C64.5159 43.6113 62.2994 39.8359 63.1266 40.923C65.4703 44.0037 64.4416 47.1216 61.9653 48.6859" fill="white"></path>
  <path fill-rule="evenodd" clip-rule="evenodd" d="M21.1945 40.1317C21.115 40.2536 21.0249 40.3809 20.9347 40.5187C20.2666 41.505 20.4893 42.2845 21.1097 41.9822C21.5445 41.7701 21.7354 40.6566 21.1945 40.137M21.7248 39.3098C22.6209 39.9408 22.9338 41.1922 22.202 42.4171C21.062 44.326 19.9113 43.52 19.9113 43.52C18.6705 42.7988 19.4288 41.1922 20.3939 39.9037C20.0916 39.9037 19.7151 39.962 19.2591 40.1317C18.2145 40.5081 17.7055 40.8422 17.7055 40.8422C17.7055 40.8422 9.91607 44.6494 11.4326 56.649C11.4326 56.649 12.1272 62.4659 14.9429 62.6515C18.1615 62.8583 19.222 59.5177 20.5317 56.9778C26.8841 58.1496 21.9104 66.5488 17.4403 67.3548C9.95319 68.707 6.07704 61.7447 7.14285 53.7963L7.42388 51.9669C9.26386 42.5072 17.7479 39.4795 17.7479 39.4795C17.7479 39.4795 18.9993 39.0499 19.7469 38.9333C20.2507 38.8538 20.7067 38.8909 21.0991 39.0128C21.7089 38.3288 22.255 37.8781 22.1967 37.9364C22.1967 37.9364 22.7535 37.6183 21.7195 39.3045" fill="white"></path>
  <path d="M44.2068 36.6444C44.2439 33.8234 44.2757 31.4585 44.2969 30.4775C44.2969 30.4775 44.6097 26.9248 42.9395 26.4582C42.9395 26.4582 48.1465 22.4177 47.9769 25.9916V35.0589C47.9769 35.0589 46.7361 36.2042 45.5695 36.5383C44.4029 36.8724 44.2068 36.6497 44.2068 36.6497" fill="white"></path>
  <path d="M43.0083 54.6141C44.2067 54.7202 40.7123 57.0268 39.3548 56.8624C37.9974 56.7033 38.3739 54.1369 38.3739 54.1369C38.3739 54.1369 38.4587 49.9161 38.5383 46.6338C38.5383 46.6338 38.8564 43.0811 37.1543 42.6145C37.1543 42.6145 42.4621 38.574 42.2871 42.1479L42.2341 53.8028C42.2341 53.8028 42.1546 54.5399 43.0083 54.6141Z" fill="white"></path>
  <path d="M36.6135 57.5466C35.7757 57.536 35.797 56.3747 35.797 56.3747L35.9878 47.5089C35.9878 47.5089 36.5499 41.6231 30.0967 46.6658L30.2187 41.0982C35.7651 37.6356 35.1129 34.4859 35.1129 34.4859C34.1691 30.5249 29.1052 34.7298 29.1052 34.7298C26.0615 37.8 25.7434 40.0058 25.7169 41.586L22.9277 44.1418C23.9458 43.8077 24.7465 43.2457 25.6002 42.901C25.6108 43.0548 25.6267 43.1396 25.6267 43.1396L25.1283 57.133C24.9056 62.7431 25.07 63.1354 25.07 63.1354C24.9745 64.127 25.6956 64.1694 26.9152 63.8036C28.1348 63.4377 31.2103 61.2318 30.0384 61.2212C30.0119 61.2212 29.9854 61.2212 29.9589 61.2159C29.2961 61.0781 29.5135 60.5637 29.5506 59.763C29.593 58.8934 30.0914 48.2354 30.0914 48.2354C32.9707 46.1303 32.3026 52.0055 32.3026 52.0055C32.2284 55.2824 32.0428 58.623 32.0428 58.623C32.0428 58.623 31.8784 60.0176 33.2199 60.0759C34.5615 60.1342 37.796 57.5678 36.6135 57.5572V57.5466ZM32.9707 34.4806C32.9707 34.4806 35.9348 35.0321 30.2611 39.6559L30.2876 38.5901C30.2876 38.5901 30.0543 34.7722 32.9707 34.4806Z" fill="white"></path>
</svg>
